<svg xmlns="http://www.w3.org/2000/svg" version="1.1" xmlns:xlink="http://www.w3.org/1999/xlink" xmlns:svgjs="http://svgjs.com/svgjs" width="1440" height="560" preserveAspectRatio="none" viewBox="0 0 1440 560"><g mask="url(&quot;#SvgjsMask1147&quot;)" fill="none"><rect width="1440" height="560" x="0" y="0" fill="rgba(255, 204, 0, 1)"></rect><path d="M77.8 52.32L141.02 88.82L141.02 161.82L77.8 198.32L14.58 161.82L14.58 88.82zM14.58 161.82L77.8 198.32L77.8 271.32L14.58 307.82L-48.64 271.32L-48.64 198.32zM77.8 490.32L141.02 526.82L141.02 599.82L77.8 636.32L14.58 599.82L14.58 526.82zM141.02 -57.18L204.24 -20.68L204.24 52.32L141.02 88.82L77.8 52.32L77.8 -20.68zM204.24 52.32L267.47 88.82L267.47 161.82L204.24 198.32L141.02 161.82L141.02 88.82zM141.02 161.82L204.24 198.32L204.24 271.32L141.02 307.82L77.8 271.32L77.8 198.32zM204.24 490.32L267.47 526.82L267.47 599.82L204.24 636.32L141.02 599.82L141.02 526.82zM330.69 271.32L393.91 307.82L393.91 380.82L330.69 417.32L267.47 380.82L267.47 307.82zM267.47 380.82L330.69 417.32L330.69 490.32L267.47 526.82L204.24 490.32L204.24 417.32zM393.91 -57.18L457.13 -20.68L457.13 52.32L393.91 88.82L330.69 52.32L330.69 -20.68zM457.13 52.32L520.35 88.82L520.35 161.82L457.13 198.32L393.91 161.82L393.91 88.82zM393.91 161.82L457.13 198.32L457.13 271.32L393.91 307.82L330.69 271.32L330.69 198.32zM393.91 380.82L457.13 417.32L457.13 490.32L393.91 526.82L330.69 490.32L330.69 417.32zM457.13 490.32L520.35 526.82L520.35 599.82L457.13 636.32L393.91 599.82L393.91 526.82zM520.35 -57.18L583.57 -20.68L583.57 52.32L520.35 88.82L457.13 52.32L457.13 -20.68zM520.35 380.82L583.57 417.32L583.57 490.32L520.35 526.82L457.13 490.32L457.13 417.32zM583.57 490.32L646.8 526.82L646.8 599.82L583.57 636.32L520.35 599.82L520.35 526.82zM646.8 161.82L710.02 198.32L710.02 271.32L646.8 307.82L583.57 271.32L583.57 198.32zM710.02 490.32L773.24 526.82L773.24 599.82L710.02 636.32L646.8 599.82L646.8 526.82zM773.24 -57.18L836.46 -20.68L836.46 52.32L773.24 88.82L710.02 52.32L710.02 -20.68zM836.46 52.32L899.68 88.82L899.68 161.82L836.46 198.32L773.24 161.82L773.24 88.82zM899.68 -57.18L962.9 -20.68L962.9 52.32L899.68 88.82L836.46 52.32L836.46 -20.68zM962.9 52.32L1026.13 88.82L1026.13 161.82L962.9 198.32L899.68 161.82L899.68 88.82zM1089.35 490.32L1152.57 526.82L1152.57 599.82L1089.35 636.32L1026.13 599.82L1026.13 526.82zM1215.79 52.32L1279.01 88.82L1279.01 161.82L1215.79 198.32L1152.57 161.82L1152.57 88.82zM1152.57 380.82L1215.79 417.32L1215.79 490.32L1152.57 526.82L1089.35 490.32L1089.35 417.32zM1279.01 161.82L1342.23 198.32L1342.23 271.32L1279.01 307.82L1215.79 271.32L1215.79 198.32zM1342.23 271.32L1405.46 307.82L1405.46 380.82L1342.23 417.32L1279.01 380.82L1279.01 307.82zM1405.46 380.82L1468.68 417.32L1468.68 490.32L1405.46 526.82L1342.23 490.32L1342.23 417.32zM1468.68 490.32L1531.9 526.82L1531.9 599.82L1468.68 636.32L1405.46 599.82L1405.46 526.82z" stroke="rgba(108, 195, 222, 1)" stroke-width="2"></path><path d="M70.5 52.32 a7.3 7.3 0 1 0 14.6 0 a7.3 7.3 0 1 0 -14.6 0zM133.72 88.82 a7.3 7.3 0 1 0 14.6 0 a7.3 7.3 0 1 0 -14.6 0zM133.72 161.82 a7.3 7.3 0 1 0 14.6 0 a7.3 7.3 0 1 0 -14.6 0zM70.5 198.32 a7.3 7.3 0 1 0 14.6 0 a7.3 7.3 0 1 0 -14.6 0zM7.28 161.82 a7.3 7.3 0 1 0 14.6 0 a7.3 7.3 0 1 0 -14.6 0zM7.28 88.82 a7.3 7.3 0 1 0 14.6 0 a7.3 7.3 0 1 0 -14.6 0zM70.5 271.32 a7.3 7.3 0 1 0 14.6 0 a7.3 7.3 0 1 0 -14.6 0zM7.28 307.82 a7.3 7.3 0 1 0 14.6 0 a7.3 7.3 0 1 0 -14.6 0zM-55.94 271.32 a7.3 7.3 0 1 0 14.6 0 a7.3 7.3 0 1 0 -14.6 0zM-55.94 198.32 a7.3 7.3 0 1 0 14.6 0 a7.3 7.3 0 1 0 -14.6 0zM70.5 490.32 a7.3 7.3 0 1 0 14.6 0 a7.3 7.3 0 1 0 -14.6 0zM133.72 526.82 a7.3 7.3 0 1 0 14.6 0 a7.3 7.3 0 1 0 -14.6 0zM133.72 599.82 a7.3 7.3 0 1 0 14.6 0 a7.3 7.3 0 1 0 -14.6 0zM70.5 636.32 a7.3 7.3 0 1 0 14.6 0 a7.3 7.3 0 1 0 -14.6 0zM7.28 599.82 a7.3 7.3 0 1 0 14.6 0 a7.3 7.3 0 1 0 -14.6 0zM7.28 526.82 a7.3 7.3 0 1 0 14.6 0 a7.3 7.3 0 1 0 -14.6 0zM133.72 -57.18 a7.3 7.3 0 1 0 14.6 0 a7.3 7.3 0 1 0 -14.6 0zM196.94 -20.68 a7.3 7.3 0 1 0 14.6 0 a7.3 7.3 0 1 0 -14.6 0zM196.94 52.32 a7.3 7.3 0 1 0 14.6 0 a7.3 7.3 0 1 0 -14.6 0zM70.5 -20.68 a7.3 7.3 0 1 0 14.6 0 a7.3 7.3 0 1 0 -14.6 0zM260.17 88.82 a7.3 7.3 0 1 0 14.6 0 a7.3 7.3 0 1 0 -14.6 0zM260.17 161.82 a7.3 7.3 0 1 0 14.6 0 a7.3 7.3 0 1 0 -14.6 0zM196.94 198.32 a7.3 7.3 0 1 0 14.6 0 a7.3 7.3 0 1 0 -14.6 0zM196.94 271.32 a7.3 7.3 0 1 0 14.6 0 a7.3 7.3 0 1 0 -14.6 0zM133.72 307.82 a7.3 7.3 0 1 0 14.6 0 a7.3 7.3 0 1 0 -14.6 0zM196.94 490.32 a7.3 7.3 0 1 0 14.6 0 a7.3 7.3 0 1 0 -14.6 0zM260.17 526.82 a7.3 7.3 0 1 0 14.6 0 a7.3 7.3 0 1 0 -14.6 0zM260.17 599.82 a7.3 7.3 0 1 0 14.6 0 a7.3 7.3 0 1 0 -14.6 0zM196.94 636.32 a7.3 7.3 0 1 0 14.6 0 a7.3 7.3 0 1 0 -14.6 0zM323.39 271.32 a7.3 7.3 0 1 0 14.6 0 a7.3 7.3 0 1 0 -14.6 0zM386.61 307.82 a7.3 7.3 0 1 0 14.6 0 a7.3 7.3 0 1 0 -14.6 0zM386.61 380.82 a7.3 7.3 0 1 0 14.6 0 a7.3 7.3 0 1 0 -14.6 0zM323.39 417.32 a7.3 7.3 0 1 0 14.6 0 a7.3 7.3 0 1 0 -14.6 0zM260.17 380.82 a7.3 7.3 0 1 0 14.6 0 a7.3 7.3 0 1 0 -14.6 0zM260.17 307.82 a7.3 7.3 0 1 0 14.6 0 a7.3 7.3 0 1 0 -14.6 0zM323.39 490.32 a7.3 7.3 0 1 0 14.6 0 a7.3 7.3 0 1 0 -14.6 0zM196.94 417.32 a7.3 7.3 0 1 0 14.6 0 a7.3 7.3 0 1 0 -14.6 0zM386.61 -57.18 a7.3 7.3 0 1 0 14.6 0 a7.3 7.3 0 1 0 -14.6 0zM449.83 -20.68 a7.3 7.3 0 1 0 14.6 0 a7.3 7.3 0 1 0 -14.6 0zM449.83 52.32 a7.3 7.3 0 1 0 14.6 0 a7.3 7.3 0 1 0 -14.6 0zM386.61 88.82 a7.3 7.3 0 1 0 14.6 0 a7.3 7.3 0 1 0 -14.6 0zM323.39 52.32 a7.3 7.3 0 1 0 14.6 0 a7.3 7.3 0 1 0 -14.6 0zM323.39 -20.68 a7.3 7.3 0 1 0 14.6 0 a7.3 7.3 0 1 0 -14.6 0zM513.05 88.82 a7.3 7.3 0 1 0 14.6 0 a7.3 7.3 0 1 0 -14.6 0zM513.05 161.82 a7.3 7.3 0 1 0 14.6 0 a7.3 7.3 0 1 0 -14.6 0zM449.83 198.32 a7.3 7.3 0 1 0 14.6 0 a7.3 7.3 0 1 0 -14.6 0zM386.61 161.82 a7.3 7.3 0 1 0 14.6 0 a7.3 7.3 0 1 0 -14.6 0zM449.83 271.32 a7.3 7.3 0 1 0 14.6 0 a7.3 7.3 0 1 0 -14.6 0zM323.39 198.32 a7.3 7.3 0 1 0 14.6 0 a7.3 7.3 0 1 0 -14.6 0zM449.83 417.32 a7.3 7.3 0 1 0 14.6 0 a7.3 7.3 0 1 0 -14.6 0zM449.83 490.32 a7.3 7.3 0 1 0 14.6 0 a7.3 7.3 0 1 0 -14.6 0zM386.61 526.82 a7.3 7.3 0 1 0 14.6 0 a7.3 7.3 0 1 0 -14.6 0zM513.05 526.82 a7.3 7.3 0 1 0 14.6 0 a7.3 7.3 0 1 0 -14.6 0zM513.05 599.82 a7.3 7.3 0 1 0 14.6 0 a7.3 7.3 0 1 0 -14.6 0zM449.83 636.32 a7.3 7.3 0 1 0 14.6 0 a7.3 7.3 0 1 0 -14.6 0zM386.61 599.82 a7.3 7.3 0 1 0 14.6 0 a7.3 7.3 0 1 0 -14.6 0zM513.05 -57.18 a7.3 7.3 0 1 0 14.6 0 a7.3 7.3 0 1 0 -14.6 0zM576.27 -20.68 a7.3 7.3 0 1 0 14.6 0 a7.3 7.3 0 1 0 -14.6 0zM576.27 52.32 a7.3 7.3 0 1 0 14.6 0 a7.3 7.3 0 1 0 -14.6 0zM513.05 380.82 a7.3 7.3 0 1 0 14.6 0 a7.3 7.3 0 1 0 -14.6 0zM576.27 417.32 a7.3 7.3 0 1 0 14.6 0 a7.3 7.3 0 1 0 -14.6 0zM576.27 490.32 a7.3 7.3 0 1 0 14.6 0 a7.3 7.3 0 1 0 -14.6 0zM639.5 526.82 a7.3 7.3 0 1 0 14.6 0 a7.3 7.3 0 1 0 -14.6 0zM639.5 599.82 a7.3 7.3 0 1 0 14.6 0 a7.3 7.3 0 1 0 -14.6 0zM576.27 636.32 a7.3 7.3 0 1 0 14.6 0 a7.3 7.3 0 1 0 -14.6 0zM639.5 161.82 a7.3 7.3 0 1 0 14.6 0 a7.3 7.3 0 1 0 -14.6 0zM702.72 198.32 a7.3 7.3 0 1 0 14.6 0 a7.3 7.3 0 1 0 -14.6 0zM702.72 271.32 a7.3 7.3 0 1 0 14.6 0 a7.3 7.3 0 1 0 -14.6 0zM639.5 307.82 a7.3 7.3 0 1 0 14.6 0 a7.3 7.3 0 1 0 -14.6 0zM576.27 271.32 a7.3 7.3 0 1 0 14.6 0 a7.3 7.3 0 1 0 -14.6 0zM576.27 198.32 a7.3 7.3 0 1 0 14.6 0 a7.3 7.3 0 1 0 -14.6 0zM702.72 490.32 a7.3 7.3 0 1 0 14.6 0 a7.3 7.3 0 1 0 -14.6 0zM765.94 526.82 a7.3 7.3 0 1 0 14.6 0 a7.3 7.3 0 1 0 -14.6 0zM765.94 599.82 a7.3 7.3 0 1 0 14.6 0 a7.3 7.3 0 1 0 -14.6 0zM702.72 636.32 a7.3 7.3 0 1 0 14.6 0 a7.3 7.3 0 1 0 -14.6 0zM765.94 -57.18 a7.3 7.3 0 1 0 14.6 0 a7.3 7.3 0 1 0 -14.6 0zM829.16 -20.68 a7.3 7.3 0 1 0 14.6 0 a7.3 7.3 0 1 0 -14.6 0zM829.16 52.32 a7.3 7.3 0 1 0 14.6 0 a7.3 7.3 0 1 0 -14.6 0zM765.94 88.82 a7.3 7.3 0 1 0 14.6 0 a7.3 7.3 0 1 0 -14.6 0zM702.72 52.32 a7.3 7.3 0 1 0 14.6 0 a7.3 7.3 0 1 0 -14.6 0zM702.72 -20.68 a7.3 7.3 0 1 0 14.6 0 a7.3 7.3 0 1 0 -14.6 0zM892.38 88.82 a7.3 7.3 0 1 0 14.6 0 a7.3 7.3 0 1 0 -14.6 0zM892.38 161.82 a7.3 7.3 0 1 0 14.6 0 a7.3 7.3 0 1 0 -14.6 0zM829.16 198.32 a7.3 7.3 0 1 0 14.6 0 a7.3 7.3 0 1 0 -14.6 0zM765.94 161.82 a7.3 7.3 0 1 0 14.6 0 a7.3 7.3 0 1 0 -14.6 0zM892.38 -57.18 a7.3 7.3 0 1 0 14.6 0 a7.3 7.3 0 1 0 -14.6 0zM955.6 -20.68 a7.3 7.3 0 1 0 14.6 0 a7.3 7.3 0 1 0 -14.6 0zM955.6 52.32 a7.3 7.3 0 1 0 14.6 0 a7.3 7.3 0 1 0 -14.6 0zM1018.83 88.82 a7.3 7.3 0 1 0 14.6 0 a7.3 7.3 0 1 0 -14.6 0zM1018.83 161.82 a7.3 7.3 0 1 0 14.6 0 a7.3 7.3 0 1 0 -14.6 0zM955.6 198.32 a7.3 7.3 0 1 0 14.6 0 a7.3 7.3 0 1 0 -14.6 0zM1082.05 490.32 a7.3 7.3 0 1 0 14.6 0 a7.3 7.3 0 1 0 -14.6 0zM1145.27 526.82 a7.3 7.3 0 1 0 14.6 0 a7.3 7.3 0 1 0 -14.6 0zM1145.27 599.82 a7.3 7.3 0 1 0 14.6 0 a7.3 7.3 0 1 0 -14.6 0zM1082.05 636.32 a7.3 7.3 0 1 0 14.6 0 a7.3 7.3 0 1 0 -14.6 0zM1018.83 599.82 a7.3 7.3 0 1 0 14.6 0 a7.3 7.3 0 1 0 -14.6 0zM1018.83 526.82 a7.3 7.3 0 1 0 14.6 0 a7.3 7.3 0 1 0 -14.6 0zM1208.49 52.32 a7.3 7.3 0 1 0 14.6 0 a7.3 7.3 0 1 0 -14.6 0zM1271.71 88.82 a7.3 7.3 0 1 0 14.6 0 a7.3 7.3 0 1 0 -14.6 0zM1271.71 161.82 a7.3 7.3 0 1 0 14.6 0 a7.3 7.3 0 1 0 -14.6 0zM1208.49 198.32 a7.3 7.3 0 1 0 14.6 0 a7.3 7.3 0 1 0 -14.6 0zM1145.27 161.82 a7.3 7.3 0 1 0 14.6 0 a7.3 7.3 0 1 0 -14.6 0zM1145.27 88.82 a7.3 7.3 0 1 0 14.6 0 a7.3 7.3 0 1 0 -14.6 0zM1145.27 380.82 a7.3 7.3 0 1 0 14.6 0 a7.3 7.3 0 1 0 -14.6 0zM1208.49 417.32 a7.3 7.3 0 1 0 14.6 0 a7.3 7.3 0 1 0 -14.6 0zM1208.49 490.32 a7.3 7.3 0 1 0 14.6 0 a7.3 7.3 0 1 0 -14.6 0zM1082.05 417.32 a7.3 7.3 0 1 0 14.6 0 a7.3 7.3 0 1 0 -14.6 0zM1334.93 198.32 a7.3 7.3 0 1 0 14.6 0 a7.3 7.3 0 1 0 -14.6 0zM1334.93 271.32 a7.3 7.3 0 1 0 14.6 0 a7.3 7.3 0 1 0 -14.6 0zM1271.71 307.82 a7.3 7.3 0 1 0 14.6 0 a7.3 7.3 0 1 0 -14.6 0zM1208.49 271.32 a7.3 7.3 0 1 0 14.6 0 a7.3 7.3 0 1 0 -14.6 0zM1398.16 307.82 a7.3 7.3 0 1 0 14.6 0 a7.3 7.3 0 1 0 -14.6 0zM1398.16 380.82 a7.3 7.3 0 1 0 14.6 0 a7.3 7.3 0 1 0 -14.6 0zM1334.93 417.32 a7.3 7.3 0 1 0 14.6 0 a7.3 7.3 0 1 0 -14.6 0zM1271.71 380.82 a7.3 7.3 0 1 0 14.6 0 a7.3 7.3 0 1 0 -14.6 0zM1461.38 417.32 a7.3 7.3 0 1 0 14.6 0 a7.3 7.3 0 1 0 -14.6 0zM1461.38 490.32 a7.3 7.3 0 1 0 14.6 0 a7.3 7.3 0 1 0 -14.6 0zM1398.16 526.82 a7.3 7.3 0 1 0 14.6 0 a7.3 7.3 0 1 0 -14.6 0zM1334.93 490.32 a7.3 7.3 0 1 0 14.6 0 a7.3 7.3 0 1 0 -14.6 0zM1524.6 526.82 a7.3 7.3 0 1 0 14.6 0 a7.3 7.3 0 1 0 -14.6 0zM1524.6 599.82 a7.3 7.3 0 1 0 14.6 0 a7.3 7.3 0 1 0 -14.6 0zM1461.38 636.32 a7.3 7.3 0 1 0 14.6 0 a7.3 7.3 0 1 0 -14.6 0zM1398.16 599.82 a7.3 7.3 0 1 0 14.6 0 a7.3 7.3 0 1 0 -14.6 0z" fill="rgba(108, 195, 222, 1)"></path><path d="M0 -159L137.7 -79.5L137.7 79.5L0 159L-137.7 79.5L-137.7 -79.5zM137.7 79.5L275.4 159L275.4 318L137.7 397.5L0 318L0 159zM0 318L137.7 397.5L137.7 556.5L0 636L-137.7 556.5L-137.7 397.5zM275.4 -159L413.11 -79.5L413.11 79.5L275.4 159L137.7 79.5L137.7 -79.5zM413.11 79.5L550.81 159L550.81 318L413.11 397.5L275.4 318L275.4 159zM275.4 318L413.11 397.5L413.11 556.5L275.4 636L137.7 556.5L137.7 397.5zM550.81 -159L688.51 -79.5L688.51 79.5L550.81 159L413.11 79.5L413.11 -79.5zM688.51 79.5L826.21 159L826.21 318L688.51 397.5L550.81 318L550.81 159zM550.81 318L688.51 397.5L688.51 556.5L550.81 636L413.11 556.5L413.11 397.5zM826.21 -159L963.91 -79.5L963.91 79.5L826.21 159L688.51 79.5L688.51 -79.5zM963.91 79.5L1101.62 159L1101.62 318L963.91 397.5L826.21 318L826.21 159zM826.21 318L963.91 397.5L963.91 556.5L826.21 636L688.51 556.5L688.51 397.5zM1101.62 -159L1239.32 -79.5L1239.32 79.5L1101.62 159L963.91 79.5L963.91 -79.5zM1239.32 79.5L1377.02 159L1377.02 318L1239.32 397.5L1101.62 318L1101.62 159zM1101.62 318L1239.32 397.5L1239.32 556.5L1101.62 636L963.91 556.5L963.91 397.5zM1377.02 -159L1514.72 -79.5L1514.72 79.5L1377.02 159L1239.32 79.5L1239.32 -79.5zM1514.72 79.5L1652.42 159L1652.42 318L1514.72 397.5L1377.02 318L1377.02 159zM1377.02 318L1514.72 397.5L1514.72 556.5L1377.02 636L1239.32 556.5L1239.32 397.5z" stroke="url(#SvgjsRadialGradient1148)" stroke-width="2"></path><path d="M-15.9 -159 a15.9 15.9 0 1 0 31.8 0 a15.9 15.9 0 1 0 -31.8 0zM121.8 -79.5 a15.9 15.9 0 1 0 31.8 0 a15.9 15.9 0 1 0 -31.8 0zM121.8 79.5 a15.9 15.9 0 1 0 31.8 0 a15.9 15.9 0 1 0 -31.8 0zM-15.9 159 a15.9 15.9 0 1 0 31.8 0 a15.9 15.9 0 1 0 -31.8 0zM-153.6 79.5 a15.9 15.9 0 1 0 31.8 0 a15.9 15.9 0 1 0 -31.8 0zM-153.6 -79.5 a15.9 15.9 0 1 0 31.8 0 a15.9 15.9 0 1 0 -31.8 0zM259.5 159 a15.9 15.9 0 1 0 31.8 0 a15.9 15.9 0 1 0 -31.8 0zM259.5 318 a15.9 15.9 0 1 0 31.8 0 a15.9 15.9 0 1 0 -31.8 0zM121.8 397.5 a15.9 15.9 0 1 0 31.8 0 a15.9 15.9 0 1 0 -31.8 0zM-15.9 318 a15.9 15.9 0 1 0 31.8 0 a15.9 15.9 0 1 0 -31.8 0zM121.8 556.5 a15.9 15.9 0 1 0 31.8 0 a15.9 15.9 0 1 0 -31.8 0zM-15.9 636 a15.9 15.9 0 1 0 31.8 0 a15.9 15.9 0 1 0 -31.8 0zM-153.6 556.5 a15.9 15.9 0 1 0 31.8 0 a15.9 15.9 0 1 0 -31.8 0zM-153.6 397.5 a15.9 15.9 0 1 0 31.8 0 a15.9 15.9 0 1 0 -31.8 0zM259.5 -159 a15.9 15.9 0 1 0 31.8 0 a15.9 15.9 0 1 0 -31.8 0zM397.21 -79.5 a15.9 15.9 0 1 0 31.8 0 a15.9 15.9 0 1 0 -31.8 0zM397.21 79.5 a15.9 15.9 0 1 0 31.8 0 a15.9 15.9 0 1 0 -31.8 0zM534.91 159 a15.9 15.9 0 1 0 31.8 0 a15.9 15.9 0 1 0 -31.8 0zM534.91 318 a15.9 15.9 0 1 0 31.8 0 a15.9 15.9 0 1 0 -31.8 0zM397.21 397.5 a15.9 15.9 0 1 0 31.8 0 a15.9 15.9 0 1 0 -31.8 0zM397.21 556.5 a15.9 15.9 0 1 0 31.8 0 a15.9 15.9 0 1 0 -31.8 0zM259.5 636 a15.9 15.9 0 1 0 31.8 0 a15.9 15.9 0 1 0 -31.8 0zM534.91 -159 a15.9 15.9 0 1 0 31.8 0 a15.9 15.9 0 1 0 -31.8 0zM672.61 -79.5 a15.9 15.9 0 1 0 31.8 0 a15.9 15.9 0 1 0 -31.8 0zM672.61 79.5 a15.9 15.9 0 1 0 31.8 0 a15.9 15.9 0 1 0 -31.8 0zM810.31 159 a15.9 15.9 0 1 0 31.8 0 a15.9 15.9 0 1 0 -31.8 0zM810.31 318 a15.9 15.9 0 1 0 31.8 0 a15.9 15.9 0 1 0 -31.8 0zM672.61 397.5 a15.9 15.9 0 1 0 31.8 0 a15.9 15.9 0 1 0 -31.8 0zM672.61 556.5 a15.9 15.9 0 1 0 31.8 0 a15.9 15.9 0 1 0 -31.8 0zM534.91 636 a15.9 15.9 0 1 0 31.8 0 a15.9 15.9 0 1 0 -31.8 0zM810.31 -159 a15.9 15.9 0 1 0 31.8 0 a15.9 15.9 0 1 0 -31.8 0zM948.01 -79.5 a15.9 15.9 0 1 0 31.8 0 a15.9 15.9 0 1 0 -31.8 0zM948.01 79.5 a15.9 15.9 0 1 0 31.8 0 a15.9 15.9 0 1 0 -31.8 0zM1085.72 159 a15.9 15.9 0 1 0 31.8 0 a15.9 15.9 0 1 0 -31.8 0zM1085.72 318 a15.9 15.9 0 1 0 31.8 0 a15.9 15.9 0 1 0 -31.8 0zM948.01 397.5 a15.9 15.9 0 1 0 31.8 0 a15.9 15.9 0 1 0 -31.8 0zM948.01 556.5 a15.9 15.9 0 1 0 31.8 0 a15.9 15.9 0 1 0 -31.8 0zM810.31 636 a15.9 15.9 0 1 0 31.8 0 a15.9 15.9 0 1 0 -31.8 0zM1085.72 -159 a15.9 15.9 0 1 0 31.8 0 a15.9 15.9 0 1 0 -31.8 0zM1223.42 -79.5 a15.9 15.9 0 1 0 31.8 0 a15.9 15.9 0 1 0 -31.8 0zM1223.42 79.5 a15.9 15.9 0 1 0 31.8 0 a15.9 15.9 0 1 0 -31.8 0zM1361.12 159 a15.9 15.9 0 1 0 31.8 0 a15.9 15.9 0 1 0 -31.8 0zM1361.12 318 a15.9 15.9 0 1 0 31.8 0 a15.9 15.9 0 1 0 -31.8 0zM1223.42 397.5 a15.9 15.9 0 1 0 31.8 0 a15.9 15.9 0 1 0 -31.8 0zM1223.42 556.5 a15.9 15.9 0 1 0 31.8 0 a15.9 15.9 0 1 0 -31.8 0zM1085.72 636 a15.9 15.9 0 1 0 31.8 0 a15.9 15.9 0 1 0 -31.8 0zM1361.12 -159 a15.9 15.9 0 1 0 31.8 0 a15.9 15.9 0 1 0 -31.8 0zM1498.82 -79.5 a15.9 15.9 0 1 0 31.8 0 a15.9 15.9 0 1 0 -31.8 0zM1498.82 79.5 a15.9 15.9 0 1 0 31.8 0 a15.9 15.9 0 1 0 -31.8 0zM1636.52 159 a15.9 15.9 0 1 0 31.8 0 a15.9 15.9 0 1 0 -31.8 0zM1636.52 318 a15.9 15.9 0 1 0 31.8 0 a15.9 15.9 0 1 0 -31.8 0zM1498.82 397.5 a15.9 15.9 0 1 0 31.8 0 a15.9 15.9 0 1 0 -31.8 0zM1498.82 556.5 a15.9 15.9 0 1 0 31.8 0 a15.9 15.9 0 1 0 -31.8 0zM1361.12 636 a15.9 15.9 0 1 0 31.8 0 a15.9 15.9 0 1 0 -31.8 0z" fill="url(#SvgjsRadialGradient1148)"></path><path d="M50.47 70.1L93.78 95.1L93.78 145.1L50.47 170.1L7.17 145.1L7.17 95.1zM93.78 145.1L137.08 170.1L137.08 220.1L93.78 245.1L50.47 220.1L50.47 170.1zM656.71 370.1L700.01 395.1L700.01 445.1L656.71 470.1L613.4 445.1L613.4 395.1zM786.62 -4.9L829.92 20.1L829.92 70.1L786.62 95.1L743.31 70.1L743.31 20.1zM829.92 70.1L873.22 95.1L873.22 145.1L829.92 170.1L786.62 145.1L786.62 95.1zM959.83 -4.9L1003.13 20.1L1003.13 70.1L959.83 95.1L916.52 70.1L916.52 20.1zM1003.13 220.1L1046.43 245.1L1046.43 295.1L1003.13 320.1L959.83 295.1L959.83 245.1zM1089.73 220.1L1133.04 245.1L1133.04 295.1L1089.73 320.1L1046.43 295.1L1046.43 245.1zM1133.04 145.1L1176.34 170.1L1176.34 220.1L1133.04 245.1L1089.73 220.1L1089.73 170.1zM1262.94 520.1L1306.25 545.1L1306.25 595.1L1262.94 620.1L1219.64 595.1L1219.64 545.1z" stroke="rgba(0, 0, 0, 0)" stroke-width="2"></path><path d="M45.47 70.1 a5 5 0 1 0 10 0 a5 5 0 1 0 -10 0zM88.78 95.1 a5 5 0 1 0 10 0 a5 5 0 1 0 -10 0zM88.78 145.1 a5 5 0 1 0 10 0 a5 5 0 1 0 -10 0zM45.47 170.1 a5 5 0 1 0 10 0 a5 5 0 1 0 -10 0zM2.17 145.1 a5 5 0 1 0 10 0 a5 5 0 1 0 -10 0zM2.17 95.1 a5 5 0 1 0 10 0 a5 5 0 1 0 -10 0zM132.08 170.1 a5 5 0 1 0 10 0 a5 5 0 1 0 -10 0zM132.08 220.1 a5 5 0 1 0 10 0 a5 5 0 1 0 -10 0zM88.78 245.1 a5 5 0 1 0 10 0 a5 5 0 1 0 -10 0zM45.47 220.1 a5 5 0 1 0 10 0 a5 5 0 1 0 -10 0zM651.71 370.1 a5 5 0 1 0 10 0 a5 5 0 1 0 -10 0zM695.01 395.1 a5 5 0 1 0 10 0 a5 5 0 1 0 -10 0zM695.01 445.1 a5 5 0 1 0 10 0 a5 5 0 1 0 -10 0zM651.71 470.1 a5 5 0 1 0 10 0 a5 5 0 1 0 -10 0zM608.4 445.1 a5 5 0 1 0 10 0 a5 5 0 1 0 -10 0zM608.4 395.1 a5 5 0 1 0 10 0 a5 5 0 1 0 -10 0zM781.62 -4.9 a5 5 0 1 0 10 0 a5 5 0 1 0 -10 0zM824.92 20.1 a5 5 0 1 0 10 0 a5 5 0 1 0 -10 0zM824.92 70.1 a5 5 0 1 0 10 0 a5 5 0 1 0 -10 0zM781.62 95.1 a5 5 0 1 0 10 0 a5 5 0 1 0 -10 0zM738.31 70.1 a5 5 0 1 0 10 0 a5 5 0 1 0 -10 0zM738.31 20.1 a5 5 0 1 0 10 0 a5 5 0 1 0 -10 0zM868.22 95.1 a5 5 0 1 0 10 0 a5 5 0 1 0 -10 0zM868.22 145.1 a5 5 0 1 0 10 0 a5 5 0 1 0 -10 0zM824.92 170.1 a5 5 0 1 0 10 0 a5 5 0 1 0 -10 0zM781.62 145.1 a5 5 0 1 0 10 0 a5 5 0 1 0 -10 0zM954.83 -4.9 a5 5 0 1 0 10 0 a5 5 0 1 0 -10 0zM998.13 20.1 a5 5 0 1 0 10 0 a5 5 0 1 0 -10 0zM998.13 70.1 a5 5 0 1 0 10 0 a5 5 0 1 0 -10 0zM954.83 95.1 a5 5 0 1 0 10 0 a5 5 0 1 0 -10 0zM911.52 70.1 a5 5 0 1 0 10 0 a5 5 0 1 0 -10 0zM911.52 20.1 a5 5 0 1 0 10 0 a5 5 0 1 0 -10 0zM998.13 220.1 a5 5 0 1 0 10 0 a5 5 0 1 0 -10 0zM1041.43 245.1 a5 5 0 1 0 10 0 a5 5 0 1 0 -10 0zM1041.43 295.1 a5 5 0 1 0 10 0 a5 5 0 1 0 -10 0zM998.13 320.1 a5 5 0 1 0 10 0 a5 5 0 1 0 -10 0zM954.83 295.1 a5 5 0 1 0 10 0 a5 5 0 1 0 -10 0zM954.83 245.1 a5 5 0 1 0 10 0 a5 5 0 1 0 -10 0zM1084.73 220.1 a5 5 0 1 0 10 0 a5 5 0 1 0 -10 0zM1128.04 245.1 a5 5 0 1 0 10 0 a5 5 0 1 0 -10 0zM1128.04 295.1 a5 5 0 1 0 10 0 a5 5 0 1 0 -10 0zM1084.73 320.1 a5 5 0 1 0 10 0 a5 5 0 1 0 -10 0zM1128.04 145.1 a5 5 0 1 0 10 0 a5 5 0 1 0 -10 0zM1171.34 170.1 a5 5 0 1 0 10 0 a5 5 0 1 0 -10 0zM1171.34 220.1 a5 5 0 1 0 10 0 a5 5 0 1 0 -10 0zM1084.73 170.1 a5 5 0 1 0 10 0 a5 5 0 1 0 -10 0zM1257.94 520.1 a5 5 0 1 0 10 0 a5 5 0 1 0 -10 0zM1301.25 545.1 a5 5 0 1 0 10 0 a5 5 0 1 0 -10 0zM1301.25 595.1 a5 5 0 1 0 10 0 a5 5 0 1 0 -10 0zM1257.94 620.1 a5 5 0 1 0 10 0 a5 5 0 1 0 -10 0zM1214.64 595.1 a5 5 0 1 0 10 0 a5 5 0 1 0 -10 0zM1214.64 545.1 a5 5 0 1 0 10 0 a5 5 0 1 0 -10 0z" fill="rgba(0, 0, 0, 0)"></path></g><defs><mask id="SvgjsMask1147"><rect width="1440" height="560" fill="#ffffff"></rect></mask><radialGradient cx="720" cy="280" r="772.53" gradientUnits="userSpaceOnUse" id="SvgjsRadialGradient1148"><stop stop-color="rgba(3, 48, 93, 1)" offset="0.14"></stop><stop stop-color="rgba(3, 48, 93, 1)" offset="0.23"></stop><stop stop-color="rgba(3, 48, 93, 1)" offset="0.35"></stop><stop stop-color="rgba(61, 122, 184, 1)" offset="0.47"></stop><stop stop-color="rgba(3, 48, 93, 1)" offset="1"></stop></radialGradient></defs></svg>