<svg width="778" height="50" viewBox="0 0 778 50" fill="none" xmlns="http://www.w3.org/2000/svg">
<path d="M777 50L777.04 3.78049C776.352 3.69919 775.705 3.57724 775.057 3.45528C774.572 3.37398 774.046 3.29268 773.56 3.21138C772.913 3.08943 772.265 2.96748 771.658 2.84553C770.727 2.68293 769.756 2.47967 768.785 2.35772C768.137 2.31707 767.49 2.27642 766.842 2.27642C766.559 2.27642 766.276 2.27642 765.992 2.27642H765.911C765.669 2.27642 765.385 2.27642 765.102 2.27642C764.981 2.27642 764.859 2.27642 764.738 2.27642L764.697 1.95122C763.969 2.27642 763.2 2.64228 762.107 3.13008V2.76423C761.703 2.76423 761.258 2.72358 760.853 2.72358C760.367 2.68293 759.841 2.68293 759.356 2.68293C758.91 2.68293 758.506 2.68293 758.142 2.72358C757.615 2.76423 757.089 2.84553 756.563 2.88618C754.985 3.04878 753.326 3.21138 751.707 3.21138C750.695 3.21138 749.724 3.17073 748.712 3.00813C748.105 2.92683 747.498 2.76423 746.932 2.64228C745.96 2.35772 744.949 2.19512 743.937 2.15447C743.006 2.15447 742.116 2.35772 741.347 2.80488C741.307 2.80488 741.306 2.80488 741.266 2.80488C741.226 2.80488 741.145 2.76423 741.064 2.76423H741.023C740.942 2.72358 740.821 2.72358 740.74 2.72358H740.699C740.457 2.76423 740.254 2.76423 740.011 2.76423C738.716 2.76423 737.705 2.35772 736.653 1.91057C735.6 1.42276 734.467 1.13821 733.334 1.05691C731.958 0.97561 730.582 0.772358 729.247 0.447154C728.478 0.325203 727.709 0.162602 726.94 0.0406504C726.778 0 726.576 0 726.374 0C725.969 0 725.564 0.0406504 725.038 0.731707C723.905 1.30081 722.731 1.70732 721.477 1.91057C720.141 2.15447 718.806 2.27642 717.47 2.35772C717.389 2.35772 717.309 2.35772 717.228 2.35772H717.187C716.823 2.35772 716.499 2.39837 716.175 2.47967C714.719 3.00813 713.302 3.53659 711.886 4.02439H711.845C711.36 4.18699 710.793 4.39024 710.267 4.5935L709.093 2.88618L705.573 4.22764L703.913 4.87805L700.109 6.34146L700.069 5.97561C699.745 5.93496 699.381 5.85366 699.057 5.81301H699.017C698.248 5.69106 697.438 5.56911 696.629 5.4878C696.346 5.44715 696.062 5.44715 695.779 5.44715C694.686 5.4065 693.594 5.69106 692.623 6.26016C691.449 6.91057 690.235 7.47967 689.021 7.96748C688.495 8.21138 687.969 8.41463 687.443 8.65854L687.321 8.49593C687.281 8.41463 687.24 8.33333 687.24 8.33333C686.714 8.49593 686.188 8.65854 685.743 8.78049H685.702C684.488 9.14634 683.315 9.47155 682.141 9.8374C681.332 10.0813 680.522 10.3659 679.713 10.6911C679.227 10.8943 678.742 11.0976 678.297 11.3821C677.285 11.9512 676.192 12.561 674.533 12.561C674.452 12.561 674.331 12.561 674.209 12.561C673.724 12.5203 673.238 12.5203 672.712 12.5203C671.822 12.4797 670.931 12.561 670.081 12.8455C668.746 13.3333 667.33 13.5772 665.913 13.5366C664.497 13.4959 663.121 13.374 661.745 13.1707H661.624L661.057 13.0894C660.814 13.9024 660.531 14.7561 660.288 15.5285L659.883 16.748L654.218 15.6504L653.489 15.5285L653.287 15.4878L652.437 16.0163L650.818 17.0325V16.6667C650.495 16.6667 650.171 16.6667 649.847 16.6667C649.24 16.626 648.633 16.626 648.026 16.626C647.905 16.626 647.783 16.626 647.662 16.626C646.933 16.626 646.205 16.626 645.557 16.6667H645.517C645.315 16.6667 645.112 16.6667 644.91 16.6667L642.765 19.1463L642.725 19.187L639.609 22.8049L639.204 22.6016L638.961 22.4797L638.88 22.439L638.273 22.1545C638.111 22.8455 637.626 23.1707 636.735 23.1707C636.371 23.1707 635.966 23.1301 635.602 23.0894C635.238 23.0488 634.833 23.0081 634.469 23.0081C634.59 23.5366 634.469 24.065 634.145 24.5122C633.619 25.3252 632.769 25.813 631.798 25.8943C631.677 25.935 631.555 25.935 631.434 25.935C630.989 25.935 630.544 25.9756 630.058 25.9756C629.451 25.9756 628.803 25.8943 628.237 25.7317C627.67 25.5691 627.144 25.2033 626.82 24.7154C626.456 25.3252 626.173 25.813 625.849 26.3821L625.728 26.5854L625.606 26.2602L625.323 25.5691L625.04 24.878L623.745 25.813L623.3 26.1382L621.721 27.2764L620.669 28.0488C620.588 27.6016 620.548 27.3984 620.507 27.1951C618.767 27.3171 617.027 27.8049 615.449 28.6179C614.113 29.3496 612.818 30.1626 611.645 31.0976C611.402 31.3008 611.199 31.4634 610.957 31.626L610.916 31.5447L610.835 31.3821L610.795 31.2602L610.714 31.0976L607.962 31.2602L607.436 31.3008L606.384 31.3821C606.181 31.626 606.06 31.8293 605.898 32.0325C605.615 32.439 605.332 32.8049 604.967 33.0894C604.603 33.2927 604.239 33.4959 603.875 33.6585C603.51 33.7805 603.146 33.9837 602.822 34.187L602.661 34.3089C602.377 34.5528 602.013 34.7154 601.608 34.7561C601.285 34.7561 601.001 34.6748 600.718 34.5122C599.383 33.9024 597.764 33.0894 595.902 33.0894C595.74 33.0894 595.538 33.1301 595.376 33.1301H595.295C593.879 33.2114 592.139 33.374 591.532 34.4715C591.491 34.5528 591.41 34.6748 591.37 34.7967C591.208 35.1626 591.006 35.5285 590.682 35.813C590.237 36.1382 589.63 36.3008 589.063 36.2602C588.901 36.2602 588.699 36.2195 588.537 36.2195C588.335 36.2195 588.051 36.5041 587.809 36.748C587.728 36.8293 587.687 36.8699 587.647 36.9106C587.566 36.9919 587.485 37.0732 587.404 37.1545C586.999 37.6016 586.514 38.0081 585.987 38.3333C585.34 38.6992 584.571 38.8618 583.802 38.8618C583.6 38.8618 583.438 38.8211 583.236 38.8211C582.79 38.4146 582.264 38.1301 581.657 37.9675C580.888 37.7642 580.119 37.6829 579.351 37.6829C577.853 37.6829 576.356 37.9268 574.899 38.3333C574.737 38.2114 574.616 38.1301 574.494 38.0081C573.766 37.2764 572.795 36.9106 571.783 36.9512C571.621 36.9512 571.5 36.9512 571.338 36.9512C571.095 36.9919 570.812 36.9919 570.569 36.9919H570.528C569.84 36.9919 569.193 37.0732 568.545 37.1545C568.384 37.1951 568.181 37.1951 567.979 37.1951C567.453 37.1545 566.927 37.1138 566.401 37.0325C566.198 37.0325 565.955 36.9919 565.713 36.9512C565.227 36.9106 564.741 36.8293 564.256 36.748C563.487 36.626 562.677 36.5041 561.909 36.4634C561.059 36.4228 560.168 36.3821 559.319 36.3821C558.064 36.3415 556.769 36.3415 555.514 36.1789C554.422 36.0569 553.329 35.8537 552.277 35.5691C551.427 35.3659 550.537 35.1626 549.646 35.0406C549.485 35 549.323 35 549.161 35C548.716 35 548.311 35.0407 547.906 35.122C547.583 35.1626 547.259 35.2439 546.976 35.2439C545.64 35.3252 544.224 35.4065 543.01 35.4878H542.726L541.35 35.5691C540.703 35.6098 540.055 35.6504 539.408 35.6911C537.83 35.7724 536.17 35.8537 534.552 36.0163C534.147 36.0976 533.702 36.1789 533.297 36.3415C532.852 36.5447 532.366 36.626 531.881 36.6667C531.881 36.6667 531.84 36.6667 531.8 36.6667C531.233 36.5854 530.707 36.3415 530.262 36.0163C530.019 35.8537 529.736 35.6911 529.453 35.5285C529.453 36.626 528.967 37.1545 527.955 37.1545C527.429 37.1138 526.903 37.0325 526.377 36.9106C525.932 36.7886 525.527 36.748 525.082 36.7073L524.354 37.561L524.07 37.8862L523.585 38.4553L522.735 37.5203L521.237 35.8537L518.85 36.8293L514.439 38.6585L514.196 38.0488L514.034 37.6423L513.791 37.0325L513.71 36.8293C513.508 36.9106 513.306 36.9919 513.103 37.0732C512.86 37.2358 512.577 37.3171 512.294 37.3577C512.253 37.3577 512.253 37.3577 512.213 37.3577C511.808 37.1951 511.404 37.0732 510.958 37.0732C510.351 37.0732 509.825 37.3171 509.38 37.6829C508.935 37.9675 508.449 38.2114 507.923 38.374C507.559 38.5366 507.195 38.6992 506.831 38.8618C506.345 39.1057 505.9 39.3902 505.495 39.7154C505.293 39.8374 505.05 40.0407 504.807 40.2033C504.281 39.4715 503.714 39.1463 503.027 39.1463C502.5 39.1463 502.015 39.2683 501.529 39.4715C501.084 39.6341 500.558 39.7561 500.072 39.7967C499.991 39.7967 499.91 39.7967 499.87 39.7967C499.708 39.7561 499.587 39.7561 499.425 39.7561C498.17 39.7561 497.644 40.3252 497.078 40.935C496.754 41.3821 496.349 41.7073 495.864 41.9512L496.066 39.5528C494.771 40.1626 493.152 40.8537 493.031 41.6667C492.869 42.3984 492.505 43.0488 491.938 43.5366C491.331 44.1057 490.684 44.5935 489.996 45.0407C489.51 45.3659 489.024 45.6911 488.579 46.0569C488.255 46.2195 487.891 46.3415 487.527 46.3821C487.325 46.4228 487.122 46.4634 486.96 46.5041L486.637 46.0976C486.799 46.0569 486.96 45.9756 487.122 45.8943C487.446 45.813 487.77 45.6098 488.013 45.3659C488.498 44.6341 488.579 44.065 488.377 43.6585C488.215 43.374 487.122 43.0488 486.515 43.0488C486.434 43.0488 486.353 43.0894 486.272 43.0894C485.382 43.3333 484.492 43.6992 483.642 44.1057C483.318 44.2276 482.954 44.3902 482.59 44.5528C482.347 44.6341 482.104 44.7561 481.78 44.878H481.74C481.538 44.9594 481.295 45.0813 480.971 45.2033C480.688 46.1789 479.555 46.748 477.855 46.748C477.369 46.748 476.884 46.7073 476.398 46.626C476.277 46.5854 476.115 46.5854 475.953 46.5854C475.548 46.5854 475.184 46.626 474.82 46.748C473.12 47.439 471.299 47.8049 469.478 47.8455C468.911 47.8455 468.385 47.8049 467.819 47.7236C467.09 47.6016 466.321 47.5203 465.552 47.5203C465.229 47.5203 464.945 47.561 464.622 47.6016C461.91 48.0081 459.118 48.2114 456.366 48.2114C454.504 48.2114 452.602 48.0894 450.7 47.9268C450.579 47.9268 450.417 47.9268 450.296 47.9268C449.244 48.0081 448.191 48.2114 447.18 48.5366C446.613 48.6992 446.006 48.9024 445.359 49.0244L445.197 48.9024L445.075 48.8211L444.509 48.4553L444.468 48.4146C444.185 48.4959 443.902 48.5772 443.659 48.6179C443.173 48.7805 442.647 48.8618 442.162 48.9024C440.138 48.9837 438.034 49.0244 435.97 49.0244H435.687C434.351 49.0244 432.935 49.0244 432.287 47.8862C432.004 47.3984 431.235 46.9512 430.142 46.5854C429.131 46.2602 428.038 46.0569 426.945 46.0569C426.419 46.0163 425.893 46.0976 425.407 46.2602C424.881 45.4065 423.586 44.878 422.089 44.878C421.037 44.878 419.985 45.1626 419.094 45.7724C418.568 46.1789 417.961 46.3821 417.314 46.3821C416.707 46.3821 416.14 46.2195 415.654 45.935C413.955 45.0407 412.377 44.065 410.839 43.1301C410.272 42.7642 409.625 42.3577 408.977 41.9919C408.856 42.0325 408.694 42.1138 408.532 42.1545C408.208 42.2764 407.925 42.3577 407.844 42.5203C407.601 43.0894 406.994 43.4553 406.347 43.4146C405.861 43.4146 405.416 43.3333 404.971 43.2114C404.768 43.1301 404.607 43.1301 404.404 43.1301C404.121 43.1301 403.838 43.1707 403.554 43.252C402.178 43.6179 400.802 44.065 399.346 44.5122C398.86 44.6748 398.293 44.8374 397.727 45C398.091 43.9024 398.091 42.7236 397.808 41.626C397.524 40.4472 396.998 39.3496 396.31 38.374C395.784 37.6016 395.096 36.9106 394.327 36.3821C393.639 35.8943 392.871 35.6504 392.021 35.6098C392.142 35.2846 392.102 34.9187 391.94 34.6341C391.576 33.9431 390.523 33.6992 389.39 33.4146C389.147 33.3333 388.864 33.2927 388.621 33.2114C388.379 33.9837 387.852 34.6341 387.124 34.9593C386.436 35.3252 385.627 35.4878 384.817 35.4878C384.291 35.5285 383.765 35.4065 383.279 35.2033C382.753 34.9187 382.187 34.7561 381.58 34.7561C381.175 34.7561 380.73 34.8374 380.325 34.9593C380.082 35 379.84 35.0813 379.597 35.122C378.828 34.9594 378.059 34.8374 377.25 34.8374C377.169 34.8374 377.088 34.8374 377.007 34.8374C376.562 34.878 376.117 34.9187 375.671 35C375.226 35.0813 374.741 35.1626 374.295 35.1626C374.053 35.1626 373.85 35.1626 373.648 35.0813C371.624 34.3902 369.682 33.5772 367.78 32.7642C367.052 32.4797 366.323 32.1545 365.595 31.8699C365.271 32.3984 364.704 32.6829 364.097 32.6829C363.571 32.6829 363.086 32.6016 362.6 32.439C362.236 32.2764 361.912 32.1138 361.588 31.9106C361.062 31.5041 360.415 31.2602 359.727 31.1789C359.039 31.2195 358.391 31.5854 357.946 32.1138C357.906 31.8699 357.865 31.6667 357.865 31.4228C357.825 30.8537 357.825 30.3659 356.732 30.3659C356.489 30.3659 356.246 30.3659 356.004 30.4065C355.518 30.4878 355.032 30.5285 354.547 30.5285C352.564 30.5285 351.228 29.878 350.257 28.4553C350.095 28.252 349.933 28.1301 349.731 28.0081C349.65 27.9268 349.529 27.8862 349.448 27.8049L349.529 28.252C349.124 28.3333 348.719 28.4553 348.314 28.5366C347.546 28.6992 346.696 28.9024 345.846 29.1057C345.724 29.1463 345.563 29.1463 345.441 29.187C345.117 29.2276 344.834 29.3089 344.551 29.4715C344.227 29.7967 343.742 29.9593 343.296 29.9593C342.77 29.9593 342.244 29.7967 341.759 29.5935C340.868 29.187 340.018 28.6992 339.209 28.1707C338.845 27.9675 338.481 27.7236 338.076 27.4797C337.186 28.0488 336.174 28.3333 335.162 28.374C334.312 28.3333 333.462 28.1301 332.694 27.7642C332.37 27.6423 332.046 27.5203 331.722 27.3984C330.953 27.1138 330.144 26.8699 329.739 26.3008C329.658 26.1789 329.537 26.1382 329.416 26.0976C328.444 26.0569 327.554 25.813 326.704 25.3659C325.773 24.878 324.721 24.5935 323.629 24.5528C323.345 24.5528 323.062 24.5528 322.779 24.5935C322.293 24.6341 321.767 24.6748 321.241 24.6748C319.986 24.7154 318.772 24.7561 317.761 25.4878C317.234 25.813 316.708 26.0569 316.142 26.2602C315.859 26.3821 315.575 26.5041 315.292 26.626C314.766 25.6504 313.876 25.5285 313.188 25.5285C312.783 25.5285 312.378 25.5691 312.014 25.6098C311.65 25.6504 311.245 25.6911 310.881 25.6911C310.719 25.6911 310.598 25.6504 310.436 25.6504C309.384 25.5285 308.291 25.4878 307.239 25.4878C306.632 25.4878 305.984 25.5285 305.377 25.5285C304.77 25.5691 304.123 25.5691 303.475 25.5691H303.232H302.828C302.261 25.5691 301.654 25.6098 301.087 25.6504C300.764 25.6911 300.399 25.7317 300.035 25.813C299.59 25.935 299.145 26.0163 298.659 26.0163C298.538 26.0163 298.417 25.9756 298.295 25.9756C297.607 25.8537 296.96 25.7317 296.312 25.5285C295.3 25.2033 294.289 25.0407 293.237 25C292.751 25 292.265 25.0407 291.78 25.1626C291.335 25.2846 290.849 25.3252 290.404 25.4065C289.918 25.4472 289.392 25.5285 288.906 25.6504C288.542 25.7724 288.137 25.8943 287.773 26.0569C287.247 26.3008 286.721 26.4634 286.154 26.5447C285.831 26.5854 285.467 26.5854 285.062 26.5854C284.657 26.5854 284.293 26.5447 283.888 26.5447C283.484 26.5041 283.079 26.5041 282.674 26.5041C282.229 26.5041 281.784 26.5447 281.339 26.5854C281.055 26.626 280.772 26.6667 280.489 26.6667C280.044 26.7073 279.639 26.5854 279.275 26.3415C278.951 26.0569 278.749 25.6504 278.708 25.2439C278.263 26.3821 277.899 26.9106 276.968 26.9106C276.442 26.9106 275.916 26.7886 275.39 26.6667C275.268 26.748 275.147 26.8293 275.026 26.9512C274.823 27.1951 274.54 27.3171 274.257 27.3984C274.135 27.3984 273.973 27.3984 273.852 27.3984C273.043 27.3577 272.233 27.4797 271.464 27.8049C270.898 28.0894 270.412 28.6179 270.25 29.2276C269.481 28.9837 268.712 28.8618 267.903 28.8211C266.81 28.8211 265.799 29.2276 264.989 29.9593C263.654 31.0976 262.197 32.1545 259.607 32.1545H259.526C258.514 32.1545 256.774 32.5203 256.653 32.6423C256.208 33.1301 255.601 33.4553 254.953 33.6179C254.265 33.7805 253.577 33.8618 252.849 33.8618C252.242 33.8618 251.554 33.8211 250.947 33.7805C250.947 34.1463 250.785 34.4715 250.502 34.6748C250.178 34.8781 249.814 35 249.449 34.9593C249.085 34.9593 248.761 34.9187 248.438 34.8374C247.102 34.5122 245.686 34.187 244.391 33.7805C243.177 33.374 241.922 33.1707 240.627 33.1707C239.656 33.1301 238.725 33.3333 237.835 33.6992C237.066 34.1057 236.257 34.4309 235.326 34.8374C234.881 35.0406 234.395 35.2439 233.909 35.4472C233.99 35.6098 233.99 35.7724 233.909 35.935C233.747 36.3821 233.019 36.7886 231.845 37.1951C230.874 37.5203 229.984 38.0894 229.255 38.8618C228.608 39.5528 228.082 39.9594 227.313 39.9594C226.706 39.9187 226.139 39.7967 225.573 39.5528C224.723 39.3496 223.833 39.2276 222.983 39.2683C221.566 39.2683 219.907 39.4715 219.381 39.878C218.653 40.4472 217.6 40.6098 216.589 40.7724C215.941 40.8537 215.334 40.9756 214.727 41.1789C214.606 41.2195 214.525 41.2195 214.444 41.2195C213.999 41.1789 213.513 41.0976 213.108 40.8943C212.299 40.5285 211.409 40.3252 210.518 40.3659C209.426 40.3252 208.333 40.5691 207.362 41.0976C207.038 41.2195 206.714 41.2602 206.35 41.2602C206.148 41.3008 205.945 41.2602 205.743 41.1789C204.65 40.6098 203.679 40.0407 202.91 39.5528C202.708 39.3902 202.465 39.2683 202.263 39.1463L201.777 39.2683C199.309 39.7967 197.164 40.2846 194.857 40.7724C194.371 40.2033 193.967 39.9187 193.481 39.9187C192.995 39.9593 192.55 40.1626 192.186 40.4878C191.862 40.6504 191.498 40.7317 191.093 40.7317C190.851 40.7724 190.648 40.7724 190.446 40.813L190.365 40.4878L190.325 40.4065C190.244 40.0407 190.163 39.7561 190.041 39.3496L188.989 39.7967L187.896 40.2439L187.775 40.1219L187.289 39.7154C186.925 39.9187 186.561 40 186.156 40C185.671 40 185.185 39.9187 184.74 39.7561C184.457 39.6748 184.173 39.5935 183.89 39.5528C183.607 39.5122 183.364 39.4715 183.081 39.4715C182.959 39.4715 182.797 39.4715 182.676 39.5528C181.583 40.4472 180.207 40.8537 178.831 40.813C178.224 40.7724 177.658 40.7317 177.091 40.6504H177.051C176.889 40.6911 176.727 40.7317 176.565 40.813C176.444 40.8943 176.282 40.935 176.16 40.9756C175.715 41.0976 175.23 41.2602 174.744 41.4228C173.854 41.7886 172.923 41.9919 171.952 42.0732C171.83 42.0732 171.709 42.0325 171.587 42.0325C171.264 41.9919 170.98 41.9512 170.657 41.9512C170.333 41.9106 170.009 41.9919 169.766 42.1951C169.645 42.3984 169.605 42.6423 169.685 42.8455C169.726 43.0488 169.726 43.2114 169.685 43.4146C169.321 43.374 168.997 43.3333 168.633 43.3333C167.986 43.3333 167.581 43.4959 167.419 43.7805C167.257 44.065 167.298 44.5528 167.622 45.1626C167.217 45.122 166.812 45.0406 166.407 45C165.962 44.9593 165.477 44.878 165.032 44.878C164.829 44.878 164.627 44.878 164.425 44.9593C164.06 45.122 163.696 45.2033 163.291 45.2033C162.684 45.1626 162.158 44.9593 161.673 44.5935C161.147 44.3496 160.54 44.1463 159.973 44.065C159.609 43.9837 159.245 43.9431 158.88 43.8211C158.84 43.7805 158.597 43.2927 158.314 42.6829C156.533 43.8211 154.55 44.3496 152.041 44.3496C151.839 44.3496 151.596 44.3496 151.394 44.3496C150.867 44.3089 150.301 44.3089 149.734 44.3089C148.399 44.3089 147.023 44.3902 145.566 44.4715H145.485H145.323C144.069 44.5528 142.571 44.6748 141.964 45.122C140.872 45.9756 139.9 46.626 138.241 46.626C137.917 46.626 137.594 46.5854 137.27 46.5447C136.987 46.5041 136.744 46.5041 136.501 46.5041C136.015 46.5041 135.489 46.5447 135.004 46.5854C134.801 46.5854 134.599 46.626 134.397 46.626C133.871 46.6667 133.304 46.7073 132.778 46.7886C131.928 46.9106 131.078 46.9919 130.188 46.9919C130.067 46.9919 129.905 46.9919 129.743 46.9919C128.205 46.8699 126.708 46.7073 125.21 46.4228C124.765 46.3415 124.28 46.2602 123.794 46.1789C123.025 46.0569 122.216 45.935 121.447 45.7724C119.868 45.4472 118.29 45.2033 116.671 45.122C115.215 45.122 113.798 44.9187 112.463 44.4715C111.41 44.1463 110.52 43.4553 109.913 42.561C109.67 42.6423 109.387 42.8049 109.144 42.9268C108.659 43.2114 108.092 43.4146 107.525 43.4959C107.445 43.4959 107.404 43.4959 107.323 43.4959C105.988 43.4959 104.167 43.3333 103.236 42.0732C102.872 41.5447 101.779 40.7317 101.374 40.7317H101.334C101.05 40.7724 100.767 40.813 100.484 40.813C99.7959 40.813 99.108 40.6098 98.5009 40.2846C98.1772 40.122 97.813 40 97.4487 39.878C96.6394 39.6341 95.7895 39.4309 94.9802 39.2683C93.5233 38.9837 92.1069 38.5772 90.7309 38.0488C89.1931 37.3984 87.1697 37.1138 85.2677 36.8293C84.3369 36.7073 83.4061 36.5447 82.5158 36.3821C82.3134 36.3008 82.1516 36.2195 81.9897 36.0569C81.9087 35.9756 81.7873 35.935 81.7064 35.8537L81.585 35.8943L80.0067 36.5447L80.29 36.1382L76.2431 34.3089L75.4337 33.9431L73.7341 33.1707C72.3177 33.2927 71.1036 33.374 69.8491 33.4553C69.5658 33.0488 69.4039 32.7236 69.1611 32.3171L68.9992 32.0732L68.1089 32.8049L67.8256 33.0488C67.6233 33.0081 67.4209 32.9675 67.2186 32.9268C66.8544 32.8455 66.4497 32.7642 66.0855 32.7642C66.045 32.7642 66.045 32.7642 66.0045 32.7642C64.4667 32.8049 62.9289 32.9268 61.4316 33.0081C60.6222 33.0488 59.7319 33.1301 58.8416 33.1707C58.6797 33.1707 58.5178 33.2114 58.3559 33.2114C58.0322 33.2114 57.668 33.252 57.3442 33.252C57.1014 33.252 56.8181 33.2114 56.5753 33.1707C55.4422 32.9268 54.3091 32.6423 53.2164 32.2358C51.4762 31.626 49.6552 31.3008 47.7936 31.3008C46.7009 31.3008 45.6487 31.4228 44.637 31.626C44.5156 31.6667 44.3942 31.6667 44.2728 31.7073H44.2323C43.5039 31.9106 42.8159 31.9919 42.0875 32.0325C41.3591 32.0325 40.6711 31.8293 40.0641 31.4634C39.9427 31.3821 39.8212 31.3821 39.6998 31.3821C39.538 31.3821 39.3356 31.3821 39.1333 31.4228H39.0928C38.8905 31.4634 38.6477 31.4634 38.4453 31.4634C38.2834 31.4634 38.162 31.4634 38.0406 31.4228C37.5955 31.3008 37.1098 31.2602 36.6242 31.2602C36.3814 31.2602 36.0981 31.2602 35.8958 31.2602H35.8553C35.6125 31.2602 35.4102 31.2602 35.1673 31.2602C34.277 31.2602 33.3058 31.1789 32.5773 30.5285C32.1727 30.3252 31.7275 30.2033 31.2823 30.1626C31.08 30.1219 30.8372 30.0813 30.6348 30.0407C30.392 29.9594 30.1492 29.9187 29.9064 29.878C29.4612 29.7967 29.0161 29.6748 28.5709 29.5528C28.1662 29.4309 27.802 29.3089 27.4378 29.1463C26.9117 28.9024 26.3856 28.6992 25.8191 28.5772C25.0502 28.374 24.2408 28.2114 23.4719 28.0488C20.9223 27.5203 18.2919 26.9512 16.0256 25.935C15.54 25.6911 15.0544 25.4472 14.6092 25.2033C13.5975 24.6341 12.5048 24.1463 11.3717 23.8618C8.66031 23.3333 6.02984 22.439 3.56125 21.1789C2.46859 20.6504 1.25453 20.2846 0 20.2033V50H777Z" fill="white"/>
</svg>
