<svg width="777" height="28" viewBox="0 0 777 28" fill="none" xmlns="http://www.w3.org/2000/svg">
<path d="M0 0V16.5491C0.161875 16.6705 0.32375 16.7514 0.445156 16.8324C1.25453 17.3179 2.14484 17.6416 3.07562 17.8844C3.48031 18.0058 3.885 18.1272 4.24922 18.2486C4.69437 18.4509 5.13953 18.5318 5.62516 18.5318C6.19172 18.4913 6.79875 18.3295 7.28437 18.0058C7.60812 17.8035 7.97234 17.6416 8.37703 17.5607L7.81047 17.4393L7.24391 17.3179H7.48672C8.66031 17.3179 9.30781 17.3584 9.75297 17.5202C10.1981 17.6821 10.4409 17.9249 10.7242 18.5723C11.2098 19.5434 11.9787 20.3121 12.95 20.7572C14.0831 21.3237 15.2567 21.7688 16.4303 22.1329C16.7136 22.2139 16.9564 22.2543 17.2397 22.2543C17.442 22.2543 17.6848 22.2543 17.8872 22.1734C18.3323 22.0116 18.8584 21.9306 19.3441 21.9306C19.8297 21.9306 20.2748 21.9711 20.7605 22.052H20.8009C20.9223 22.052 21.0437 22.0925 21.1652 22.0925C21.3675 22.1329 21.5294 22.1329 21.7317 22.1329C22.3387 22.1329 22.9458 22.0925 23.5123 21.9711C24.1194 21.8902 24.7264 21.8092 25.3739 21.8092C26.0214 21.8092 26.6689 21.8902 27.2759 22.052C28.3281 22.3353 29.3803 22.4971 30.4325 22.5376C31.2823 22.578 32.0917 22.3757 32.7797 21.8902C33.1439 21.9711 33.4677 22.0925 33.7509 22.1734C34.358 22.3353 34.8841 22.4971 35.4102 22.659C36.26 22.8613 37.1098 23.104 37.9597 23.3064C38.9714 23.5491 40.0236 23.7919 41.0353 24.0751C41.7637 24.2775 42.5327 24.5202 43.2611 24.763C44.718 25.289 46.2558 25.6532 47.7936 25.896C52.8117 26.5029 57.9512 26.9884 62.9289 27.4335C64.8714 27.6358 66.8948 27.7977 68.8778 28C68.8778 27.7572 68.9587 27.5145 68.7969 27.3526C69.1206 27.0289 69.7277 26.8671 70.618 26.8671C70.8608 26.8671 71.1036 26.9075 71.3464 26.9075C71.7916 26.948 72.2772 27.0289 72.7223 27.0694C73.3698 27.1503 74.0578 27.1908 74.7053 27.2312C74.7863 27.2312 74.8267 27.2312 74.9077 27.2312C75.6361 27.2312 76.3645 27.1503 77.0525 26.9884C77.4167 26.9075 77.8214 26.7861 78.1856 26.6647C78.6712 26.4624 79.1569 26.341 79.683 26.3006C79.8044 26.3006 79.8853 26.341 79.9663 26.341C80.6138 26.5029 81.2612 26.5434 81.9087 26.5434C83.1633 26.5434 84.4178 26.3815 85.6319 26.0983C86.8055 25.8555 87.9791 25.6936 89.1527 25.6532C90.0025 25.6127 90.8119 25.5318 91.6212 25.3699C92.1069 25.2486 92.633 25.1676 93.1591 25.1272C93.6852 25.0867 94.2517 25.0462 94.8183 25.0462C95.9109 25.0462 97.0036 25.0058 97.732 24.6821C98.7437 24.1561 99.8769 23.8728 101.01 23.8324C102.103 23.8324 103.155 24.1561 104.086 24.7225C104.207 24.6416 104.328 24.5202 104.45 24.3988C104.652 24.1965 104.855 24.0347 105.138 23.9538C106.271 23.7514 107.404 23.5896 108.497 23.4277C109.347 23.3064 110.237 23.185 111.087 23.0231C111.653 22.9422 112.179 22.7803 112.665 22.4971C113.596 21.9711 114.648 21.6879 115.741 21.6879C116.388 21.6879 117.036 21.8092 117.602 22.0925C118.816 22.7399 120.152 22.8208 121.528 22.9017C121.932 22.9017 122.377 22.9422 122.782 22.9827C122.985 23.0231 123.227 23.0231 123.43 23.0231C124.563 22.9827 125.736 22.7399 126.789 22.2948C127.881 21.8902 129.014 21.6069 130.188 21.526C130.633 21.4855 131.038 21.4855 131.442 21.4451C132.009 21.4046 132.535 21.3642 133.021 21.3642C133.506 21.3237 133.992 21.4046 134.478 21.526C135.004 21.4451 135.53 21.3642 135.975 21.3237C136.744 21.2428 137.553 21.0809 138.322 20.8786C139.212 20.5954 140.022 20.2312 140.831 19.8671C141.438 19.5838 142.086 19.3006 142.774 19.0578C144.312 18.4913 145.89 18.0462 147.509 17.7225C149.289 17.3584 150.989 16.8324 152.689 16.2254C153.903 15.7399 155.44 15.578 156.978 15.4162C157.747 15.3353 158.557 15.2543 159.285 15.1329C160.135 14.9711 161.025 14.8902 161.875 14.8092C163.089 14.7283 164.344 14.526 165.558 14.2832C166.691 14.0405 167.743 13.5549 168.633 12.8266L169.159 13.1098H169.2L169.321 13.1908L171.142 12.948L173.328 12.6647C173.449 12.5838 173.611 12.5029 173.732 12.422C174.137 12.1387 174.582 11.9769 175.068 11.896C175.108 11.896 175.108 11.896 175.149 11.896C175.351 11.9364 175.594 11.9364 175.796 11.9364C178.022 11.9364 179.115 10.9653 180.167 10.0751C180.329 9.91329 180.531 9.79191 180.693 9.63006C180.936 9.83237 181.179 10.0751 181.421 10.3179C181.947 10.9249 182.595 11.4509 183.283 11.896C184.092 12.3815 185.347 12.5838 186.48 12.7457H186.52H186.561C186.804 12.6647 187.047 12.5434 187.249 12.341C187.37 12.2197 187.532 12.0983 187.694 12.0173C187.856 11.9364 188.018 11.896 188.18 11.896H188.22C188.422 11.896 188.625 11.896 188.827 11.896C191.458 11.896 193.036 10.8439 194.614 9.83237C194.897 9.63006 195.221 9.46821 195.505 9.2659C196.152 8.82081 196.921 8.57803 197.69 8.53757C198.337 8.53757 198.985 8.73988 199.511 9.10405C199.794 9.30636 200.077 9.46821 200.32 9.67052C200.563 9.87283 200.806 10.0751 201.089 10.237C201.372 10.4393 201.696 10.5607 202.02 10.6416H202.06C202.465 10.6012 202.91 10.5607 203.315 10.5607C203.922 10.5607 204.489 10.6012 205.096 10.6821C205.703 10.763 206.31 10.8035 206.876 10.8035C207.807 10.8439 208.697 10.6416 209.507 10.237C209.628 10.1965 209.709 10.1965 209.79 10.1965C209.871 10.1965 209.911 10.1965 209.952 10.1965C210.316 10.3179 210.68 10.3988 211.045 10.3988C211.652 10.3988 212.259 10.1156 212.623 9.63006C212.785 9.50867 212.947 9.34682 213.108 9.22543C214.363 8.25434 215.698 7.3237 216.993 6.51445C217.56 6.15029 218.167 5.86705 218.815 5.58382C219.179 5.42197 219.502 5.26012 219.867 5.09827C219.948 5.09827 220.069 5.09827 220.19 5.09827C220.555 5.0578 221.04 5.0578 221.566 5.01734C222.012 4.97688 222.497 4.89595 222.983 4.85549C223.711 4.7341 224.44 4.65318 225.168 4.65318C225.411 4.65318 225.613 4.69364 225.816 4.69364C226.787 4.77457 227.718 4.89595 228.648 5.01734C230.389 5.26012 232.169 5.42197 233.95 5.46243C235.042 5.46243 236.135 5.3815 237.187 5.17919C237.268 5.17919 237.309 5.17919 237.39 5.17919C237.592 5.17919 237.754 5.17919 237.956 5.21965H237.997C238.159 5.21965 238.28 5.26012 238.442 5.26012C238.482 5.26012 238.523 5.26012 238.563 5.21965C239.089 4.77457 239.737 4.53179 240.425 4.53179C241.153 4.57225 241.841 4.69364 242.489 4.93642C242.772 5.01734 243.055 5.09827 243.339 5.17919C243.42 5.21965 243.5 5.21965 243.581 5.26012C243.743 5.34104 243.905 5.3815 244.067 5.3815C244.148 5.3815 244.188 5.3815 244.269 5.3815C244.634 5.3815 244.998 5.34104 245.362 5.34104H245.403C245.564 5.30058 245.726 5.30058 245.888 5.30058L245.969 5.66474L246.414 5.50289L246.576 5.46243L246.657 5.42197L246.9 5.34104C247.466 5.62428 248.033 5.86705 248.6 6.15029C249.814 6.75723 251.028 7.28324 252.282 7.76879C253.78 8.25434 255.317 8.57803 256.896 8.73988C257.745 8.82081 258.555 8.82081 259.405 8.82081H260.133C260.862 8.82081 261.671 8.82081 262.44 8.90173C263.735 8.98266 264.989 9.2659 266.203 9.71098C267.741 10.2775 269.117 10.9249 270.615 11.6127C271.222 11.896 271.869 12.1792 272.476 12.4624C273.285 11.896 274.176 11.6127 275.147 11.6127C275.714 11.6127 276.321 11.7341 276.847 11.9364C277.656 12.3006 278.344 12.7861 278.992 13.3526C279.315 13.6358 279.639 13.9191 280.044 14.2023C280.408 14.1618 280.813 14.0809 281.258 14C282.431 13.7572 283.605 13.5954 284.779 13.5145L285.102 13.474H285.224C286.235 13.4335 287.247 13.3526 288.259 13.3526C289.068 13.3526 289.878 13.4335 290.687 13.5549C291.537 13.6763 292.387 13.7572 293.237 13.7977C294.896 13.8786 296.595 13.9595 297.89 14.8092C297.971 14.8497 298.012 14.8497 298.093 14.8497H298.133C298.498 14.8497 298.862 14.8902 299.226 14.8902C299.954 14.8902 300.723 14.9306 301.452 14.9306C301.614 14.9306 301.816 14.9306 301.978 14.9306C302.585 14.9306 303.151 14.8497 303.718 14.8092C304.001 14.7688 304.325 14.7688 304.649 14.7283C305.215 14.6879 305.741 14.6474 306.267 14.6069H306.308C306.955 14.5665 307.684 14.4855 308.372 14.4451C308.493 14.4451 308.615 14.4046 308.736 14.3642C308.777 14.3642 308.817 14.3237 308.898 14.3237L308.493 14L308.372 13.9191L308.25 13.8382L307.684 13.3931L314.725 13.474L314.806 13.1098L314.847 12.8266L317.315 13.1503H317.396L320.796 13.6358C320.836 13.2312 321.079 13.0694 321.524 13.0694C321.807 13.0694 322.05 13.1098 322.293 13.1503C322.576 13.1908 322.819 13.2312 323.062 13.2312C323.426 13.2312 323.669 13.1098 323.75 12.8671L327.918 13.0694H328.08C330.144 13.1503 332.289 13.2717 334.393 13.3526C334.677 13.3526 334.919 13.3526 335.203 13.3526C335.729 13.3526 336.255 13.3931 336.781 13.474C337.914 13.7168 339.088 13.9595 340.18 14.2428C342.406 14.8497 344.713 15.2543 347.02 15.4566C348.598 15.578 350.136 15.9422 351.633 16.4682C353.009 16.9538 354.385 17.2775 355.801 17.4393C358.189 17.6416 360.334 18.1676 361.629 18.8555C362.56 19.3815 363.571 19.6647 364.623 19.7052C365.352 19.7052 366.08 19.5434 366.768 19.2197C367.092 19.3006 367.416 19.341 367.659 19.422C368.185 19.5434 368.63 19.6647 369.075 19.7457C369.358 19.7861 369.723 19.7861 370.046 19.8266C370.532 19.8671 370.937 19.9075 370.977 19.9884C371.22 20.7168 371.827 21.0809 372.717 21.0809C373.446 21.0405 374.174 20.8786 374.862 20.5954C375.59 20.3121 376.359 20.1503 377.128 20.1503C378.14 20.1503 379.111 20.3931 380.002 20.8382C380.973 21.2832 382.025 21.526 383.077 21.4855C383.725 21.4855 384.372 21.4046 385.06 21.3642C385.303 21.3237 385.546 21.2832 385.789 21.2832L386.031 21.6069L386.153 21.7688L386.193 21.8092L386.76 22.5376C387.084 22.0925 387.326 21.8092 387.61 21.4451L388.055 20.8382C388.136 21.1214 388.257 21.3237 388.338 21.4855C388.5 21.7283 388.581 22.0116 388.702 22.2948C388.864 22.8613 389.35 23.1445 390.119 23.1445C390.483 23.104 390.847 23.0636 391.211 22.9827C391.94 22.8208 392.668 22.578 393.356 22.2948C393.64 22.1734 393.963 22.0925 394.247 21.9711C394.773 22.4162 395.177 22.7803 395.622 23.104C395.744 23.0231 395.865 22.9827 395.987 22.9422L395.784 22.5376C396.27 22.4971 396.837 22.4971 397.363 22.4566C398.536 22.4162 399.669 22.3757 399.912 22.052C400.398 21.4855 400.803 21.2023 401.207 21.2023C401.612 21.2428 401.976 21.4451 402.259 21.7688C402.462 21.9711 402.664 22.1329 402.907 22.2543C403.271 22.4162 403.595 22.6185 403.959 22.7803C404.404 23.0231 404.89 23.2659 405.375 23.4682C405.74 23.5896 406.104 23.711 406.468 23.8324C406.832 23.9538 407.197 24.0751 407.52 24.1965C408.046 24.3988 408.532 24.6416 409.018 24.8844C409.584 25.1676 410.191 25.4509 410.798 25.6936C412.579 26.3815 414.602 26.422 416.545 26.4624C417.111 26.4624 417.718 26.4624 418.285 26.5029L418.811 26.5434H418.932C420.187 26.5838 421.522 26.6647 422.777 26.6647C424.922 26.7457 427.067 26.4624 429.131 25.815C429.333 25.7746 429.576 25.7341 429.778 25.7341C430.142 25.7341 430.507 25.7746 430.83 25.815C431.033 25.8555 431.275 25.896 431.478 25.896C432.085 25.9364 432.732 26.0173 433.339 26.0578C434.634 26.1792 435.929 26.3006 437.224 26.3006C437.75 26.2601 438.236 26.1792 438.681 25.9769C439.126 25.815 439.572 25.6936 440.057 25.6532C440.948 25.6127 441.878 25.6127 442.769 25.6127C444.59 25.6532 446.37 25.5318 448.151 25.3295C448.434 25.289 448.677 25.289 448.92 25.289C449.244 25.289 449.608 25.3295 449.932 25.3295H449.972C450.296 25.3699 450.62 25.3699 450.903 25.3699C451.267 25.4104 451.591 25.3699 451.915 25.2081C452.926 24.5202 454.1 24.237 455.719 24.237C456.407 24.237 457.135 24.3179 457.823 24.3584C457.985 24.3584 458.187 24.3988 458.349 24.3988C458.956 24.4798 459.563 24.6012 460.13 24.8035C460.494 24.8844 460.818 25.0058 461.222 25.0867C461.263 25.0867 461.263 25.0462 461.263 25.0462C461.465 24.8035 461.748 24.6012 462.032 24.5202C463.165 24.237 464.338 24.0751 465.512 24.0347C466.483 23.9942 467.455 24.237 468.264 24.763C468.79 25.1272 469.437 25.3295 470.085 25.3295C470.692 25.289 471.259 25.2081 471.825 25.0462H471.866C472.392 24.9249 472.958 24.8439 473.525 24.8035C473.97 24.763 474.415 24.8844 474.779 25.0867L475.144 24.8035L476.924 26.3815C477.936 25.6127 479.15 25.1676 480.445 25.1272C480.971 25.1272 481.457 25.2081 481.983 25.3295C482.145 25.3699 482.347 25.3699 482.509 25.3699C483.075 25.3295 483.642 25.2486 484.209 25.0462C484.937 24.763 485.625 24.4798 486.313 24.1965C487.406 23.711 488.498 23.3064 489.631 22.9827C490.805 22.7399 491.979 22.6185 493.152 22.6185C493.678 22.578 494.245 22.578 494.771 22.5376C495.135 22.2139 495.621 21.8092 496.066 21.4046L496.268 21.2428L497.847 22.0925L497.806 21.7283L499.83 21.3642L500.801 21.2023L502.258 20.9595C502.743 21.6474 503.31 22.3757 503.917 23.185L505.212 22.6185L505.293 22.578L505.617 22.4566L504.443 21.7688L503.634 21.2832C503.957 21.1618 504.322 21.0405 504.645 20.9191C505.05 20.8382 505.414 20.6763 505.778 20.474C505.374 19.8671 504.929 19.3006 504.403 18.7746C504.241 18.6127 504.079 18.4509 503.917 18.2486L505.212 18.3295V18.2081L505.171 17.8844C505.171 17.7225 505.131 17.5607 505.131 17.4798C505.9 16.9133 506.992 16.6705 508.085 16.4277C508.814 16.2659 509.583 16.0636 510.27 15.7803C510.918 15.5376 511.444 15.052 511.727 14.4046C512.051 14.4855 512.375 14.526 512.658 14.6069C513.306 14.7283 513.953 14.8902 514.601 15.052C515.208 15.2139 515.815 15.2948 516.422 15.2948C517.352 15.3353 518.243 15.052 519.012 14.5665C519.457 14.2428 519.983 14.0405 520.509 13.8786C521.399 13.6763 522.29 13.474 523.18 13.2717C524.637 12.948 526.175 12.6243 527.591 12.1792C528.927 11.7341 530.222 11.2486 531.476 10.6821C532.043 10.4393 532.609 10.1965 533.216 9.95376C533.338 10.0347 533.459 10.1156 533.58 10.1965C533.823 10.3988 534.107 10.5607 534.39 10.7225C534.795 10.8844 535.24 10.9653 535.685 10.9249C536.697 10.9249 537.992 10.6821 538.234 10.3584C538.275 10.3179 538.275 10.237 538.275 10.1965C538.194 10.0347 538.194 9.87283 538.275 9.75145C538.356 9.5896 538.639 9.54913 538.882 9.54913C539.003 9.54913 539.165 9.50867 539.327 9.46821C539.408 9.46821 539.448 9.38728 539.448 9.34682V9.30636L539.003 8.98266L538.76 8.82081L538.113 8.37572L541.067 8.01156L542.322 7.84971C542.443 7.6474 542.605 7.36416 542.767 7.08092L542.929 6.75723L543.455 5.82659L543.981 6.59538L544.507 7.36416C546.328 6.75723 546.085 5.82659 545.802 4.85549C545.721 4.65318 545.681 4.45087 545.64 4.24855C545.923 4.28902 546.207 4.32948 546.45 4.36994C546.854 4.36994 547.259 4.49133 547.623 4.65318C548.837 5.54335 549.97 6.47399 551.184 7.44509C551.63 7.80925 552.075 8.17341 552.52 8.53757L552.763 8.17341L553.167 7.56647C553.653 7.76879 554.139 7.9711 554.584 8.17341C555.595 8.65896 556.607 9.06358 557.659 9.42775C558.226 9.63006 558.792 9.95376 559.278 10.3584C560.007 10.9249 560.775 11.4913 562.03 11.4913C562.556 11.4509 563.042 11.4104 563.527 11.2486C563.568 11.2486 563.649 11.2486 563.689 11.2486C564.053 11.289 564.418 11.3699 564.741 11.5318C564.944 11.6127 565.146 11.6936 565.308 11.7341C565.551 11.815 565.834 11.896 566.077 11.9769C566.563 12.1387 567.089 12.2601 567.615 12.3815C568.667 12.5434 569.76 12.8266 570.771 13.2312C571.621 13.5549 572.35 14.1618 572.795 14.9711C573.038 15.4162 573.928 15.8208 574.656 16.0231C575.061 16.1445 575.466 16.2659 575.87 16.3873C577.489 16.9538 579.148 17.3584 580.848 17.5607C583.155 17.763 585.138 18.4509 587.08 19.1387C588.577 19.7457 590.156 20.1908 591.734 20.5145C593.231 20.7977 594.85 20.9595 596.388 21.1214H596.469C596.752 21.1619 596.995 21.1619 597.278 21.2023C597.885 21.2832 598.533 21.2832 599.14 21.3237C600.273 21.3237 601.366 21.4855 602.458 21.7283C603.187 21.9711 603.956 22.1329 604.725 22.2139C605.453 22.2139 605.979 21.8902 606.91 21.1214C607.395 21.3642 607.922 21.4855 608.448 21.526C608.974 21.4855 609.419 21.3237 609.864 21.0809C609.985 21.0405 610.066 20.9595 610.188 20.9191C611.847 20.1503 613.587 19.4624 615.287 18.815C616.218 18.4509 617.189 18.0867 618.16 17.6821C618.565 17.5202 618.929 17.3179 619.293 17.1156C619.496 16.9942 619.698 16.8728 619.941 16.7514C620.022 16.711 620.062 16.6705 620.143 16.6301C620.507 16.4277 620.872 16.2659 621.236 16.1445C621.721 15.9827 622.207 15.8613 622.693 15.7399C623.34 15.578 624.028 15.3757 624.635 15.1734C625.525 14.8497 626.456 14.5665 627.347 14.2832C628.722 13.8382 630.139 13.3931 631.474 12.8671C633.093 12.2197 635.157 12.0173 637.18 11.815C638.071 11.7341 638.961 11.6532 639.811 11.5318C640.216 11.9769 641.106 12.2197 642.28 12.2197C643.777 12.2197 645.193 11.8555 646.488 11.1676C646.529 10.8035 646.529 10.4393 646.529 9.75145L647.055 10.1156C647.581 10.4798 647.986 10.763 648.431 11.0867C648.795 10.6821 649.321 10.4393 649.888 10.4393C650.576 10.4798 651.264 10.6821 651.871 10.9653C651.952 11.0058 652.073 11.0462 652.154 11.0867C652.518 11.2486 652.923 11.3699 653.328 11.3699C653.57 11.3699 653.813 11.3295 654.056 11.2486C655.149 10.8439 656.16 10.4393 657.253 10.0347C657.617 9.87283 658.103 9.67052 658.588 9.50867L660.612 10.5607L660.733 10.6416L661.178 10.8844L662.757 11.7341L663.242 11.5318L664.942 10.763C664.942 10.9653 664.902 11.1676 664.902 11.3699C664.861 11.6936 664.861 11.9769 664.942 11.9769C665.144 12.0173 665.306 12.0578 665.509 12.0578C666.197 12.0578 666.237 11.6936 666.318 11.3295C666.399 10.9653 666.48 10.6416 667.087 10.6012L667.249 10.6821C668.099 11.1676 668.948 11.5723 669.758 12.0173C670.689 11.5318 671.741 11.2486 672.793 11.2486C673.521 11.2486 674.29 11.3699 674.978 11.6532C675.221 10.9653 676.071 10.7225 676.759 10.7225C676.961 10.7225 677.164 10.763 677.366 10.8035C678.297 11.0462 679.227 11.4104 680.037 11.9364L680.077 11.9769L680.28 12.0983C680.725 12.3815 681.089 12.7052 681.413 13.1098C682.02 13.7977 682.627 14.526 684.246 14.526C684.569 14.526 684.853 14.4855 685.176 14.4451C685.217 14.3642 685.257 14.2832 685.298 14.2023C685.379 13.9595 685.581 13.7168 685.824 13.5954C686.107 13.5145 686.35 13.3931 686.593 13.2717C687.564 12.8266 688.616 12.341 689.668 12.3006C689.952 12.3006 690.235 12.3006 690.518 12.3006C691.935 12.3006 693.392 12.422 694.808 12.5434C695.536 12.5838 696.265 12.6647 696.993 12.7052L697.236 12.0173C698.005 12.0578 698.733 12.0578 699.462 12.0983C700.271 12.1387 701.081 12.1792 701.85 12.1792C702.538 12.1792 703.266 12.1387 703.954 12.0578C706.099 11.7746 708.203 11.289 710.227 10.5202C711.198 10.1156 712.129 9.5896 712.978 8.98266C713.343 8.73988 713.747 8.49711 714.112 8.25434L714.314 8.33526C715.69 8.98266 716.256 9.22543 716.944 9.22543C717.592 9.18497 718.199 9.10405 718.806 8.90173C719.211 8.78035 719.575 8.57803 719.858 8.2948C720.141 8.05202 720.425 7.89017 720.708 7.72832C721.234 7.52601 721.76 7.36416 722.286 7.20231C722.934 7.04046 723.541 6.83815 724.107 6.55491C725.483 5.86705 726.9 5.13873 727.385 3.96532C727.507 3.76301 727.75 3.60116 727.992 3.52023C728.802 3.31792 729.692 3.19653 730.299 3.07514C730.542 3.03468 730.704 3.03468 730.866 2.99422C731.432 3.15607 731.958 3.31792 732.484 3.47977C733.617 3.84393 734.751 4.16763 735.884 4.4104C736.288 4.49133 736.693 4.53179 737.138 4.53179C738.433 4.53179 739.647 4.08671 740.619 3.23699C740.902 3.07514 741.266 2.99422 741.59 2.99422H741.63C742.44 2.99422 743.249 2.87283 744.018 2.63006H744.058C744.868 2.38728 745.718 2.2659 746.568 2.22543C746.891 2.22543 747.175 2.2659 747.498 2.30636C747.701 2.34682 747.903 2.34682 748.105 2.34682C749.4 2.34682 750.938 1.86127 752.314 1.37572C753.326 0.971098 754.418 0.809249 755.511 0.809249C756.078 0.809249 756.685 0.849711 757.292 0.930636C758.061 1.01156 758.83 1.05202 759.598 1.05202H759.639C759.841 1.05202 760.084 1.05202 760.327 1.05202C761.703 1.05202 763.079 1.2948 764.414 1.73988C765.507 2.14451 766.519 2.75145 767.368 3.60116C768.137 4.45087 769.068 5.13873 770.039 5.7052C771.334 6.3526 772.751 6.71676 774.208 6.71676C775.138 6.75723 776.069 6.87861 777 7.04046V0H0Z" fill="white"/>
</svg>
