<svg xmlns="http://www.w3.org/2000/svg" viewBox="0 0 283.46 103.28"><defs><style>.cls-1{fill:#1d1d1b;}</style></defs><title>Asset 2</title><g id="Layer_2" data-name="Layer 2"><g id="logo"><path class="cls-1" d="M17.36,86.1H15.75l.49-2.77h1.64L18.46,80h3.46l-.59,3.31h3l-.49,2.77h-3l-1.15,6.47c-.14.89.15,1.28,1.2,1.28h1.62L22,96.7H19.79c-2.6,0-4.12-1.09-3.58-4.15Z"/><path class="cls-1" d="M30.49,96.91c-3.5,0-5.87-2.26-5.87-5.62a8.1,8.1,0,0,1,8.3-8.18c3.52,0,5.95,2.27,5.95,5.65A8.12,8.12,0,0,1,30.49,96.91ZM31,94c2.54,0,4.36-2.44,4.36-5a2.76,2.76,0,0,0-2.89-3c-2.58,0-4.26,2.43-4.26,5A2.67,2.67,0,0,0,31,94Z"/><path class="cls-1" d="M47.82,83.11a4.31,4.31,0,0,1,4.09,2.12l.34-1.9H55.7L53.3,96.79a7.64,7.64,0,0,1-7.88,6.49c-3.82,0-6.13-1.88-5.93-4.94h3.4c.12,1.2,1.28,2,3,2a3.89,3.89,0,0,0,4-3.55l.37-2.07a6.52,6.52,0,0,1-4.85,2.19c-3.48,0-5.73-2.77-5-7S44.36,83.11,47.82,83.11Zm.36,3A4.47,4.47,0,0,0,43.9,90c-.44,2.54,1,4,2.86,4A4.49,4.49,0,0,0,51.05,90C51.51,87.48,50,86.08,48.18,86.08Z"/><path class="cls-1" d="M62.59,96.91c-3.94,0-6.37-2.7-5.58-6.9a8,8,0,0,1,8-6.9c3.92,0,6.22,2.63,5.51,6.59A8.52,8.52,0,0,1,70.23,91H60.31A2.57,2.57,0,0,0,63,94.11a3.35,3.35,0,0,0,3-1.61h3.7A7.78,7.78,0,0,1,62.59,96.91Zm-1.91-8h6.47a2.47,2.47,0,0,0-2.7-3A3.94,3.94,0,0,0,60.68,88.9Z"/><path class="cls-1" d="M74.23,86.1H72.62l.49-2.77h1.64L75.33,80h3.46l-.59,3.31h3l-.49,2.77h-3l-1.15,6.47c-.14.89.15,1.28,1.2,1.28h1.62l-.51,2.85H76.66c-2.6,0-4.12-1.09-3.58-4.15Z"/><path class="cls-1" d="M84.5,78.84H88L86.85,85a6.39,6.39,0,0,1,4.53-1.84c3,0,4.92,2,4.26,5.72L94.22,96.7H90.81l1.33-7.39c.36-2.15-.61-3.3-2.43-3.3a3.54,3.54,0,0,0-3.6,3.11L84.74,96.7H81.29Z"/><path class="cls-1" d="M103.41,96.91c-3.94,0-6.37-2.7-5.58-6.9a8,8,0,0,1,8-6.9c3.92,0,6.22,2.63,5.51,6.59a8.52,8.52,0,0,1-.32,1.25h-9.92a2.57,2.57,0,0,0,2.7,3.16,3.35,3.35,0,0,0,3-1.61h3.7A7.78,7.78,0,0,1,103.41,96.91Zm-1.91-8H108a2.47,2.47,0,0,0-2.7-3A3.94,3.94,0,0,0,101.5,88.9Z"/><path class="cls-1" d="M112.61,96.7,115,83.33h3.46L118,85.69a5.72,5.72,0,0,1,4.6-2.56L122,86.68h-.91a3.4,3.4,0,0,0-3.77,2.87l-1.27,7.15Z"/><path class="cls-1" d="M131.37,86.1h-1.56l.49-2.77h1.56l.13-.68c.58-3.28,2.71-4.8,6.51-4.7L138,80.79c-1.64,0-2.33.49-2.6,2l-.09.56h2.37l-.49,2.77h-2.37l-1.91,10.6h-3.46Z"/><path class="cls-1" d="M143.6,96.91c-3.5,0-5.88-2.26-5.88-5.62a8.1,8.1,0,0,1,8.3-8.18c3.53,0,5.95,2.27,5.95,5.65A8.12,8.12,0,0,1,143.6,96.91Zm.46-2.89c2.55,0,4.36-2.44,4.36-5a2.76,2.76,0,0,0-2.89-3c-2.57,0-4.26,2.43-4.26,5A2.67,2.67,0,0,0,144.06,94Z"/><path class="cls-1" d="M153.16,96.7l2.4-13.37H159l-.42,2.36a5.72,5.72,0,0,1,4.61-2.56l-.64,3.55h-.91a3.41,3.41,0,0,0-3.77,2.87l-1.27,7.15Z"/><path class="cls-1" d="M177.9,83.11c3.38,0,5.34,1.74,5.56,4.73h-3.7a2.17,2.17,0,0,0-2.4-1.86c-1.91,0-3.43,1.42-3.89,4s.56,4,2.47,4a3.17,3.17,0,0,0,3-1.84h3.7a7.69,7.69,0,0,1-7.22,4.73c-3.94,0-6.27-2.7-5.49-6.9A8,8,0,0,1,177.9,83.11Z"/><path class="cls-1" d="M187.58,78.84H191L189.93,85a6.39,6.39,0,0,1,4.53-1.84c3,0,4.92,2,4.26,5.72L197.3,96.7h-3.4l1.32-7.39c.37-2.15-.61-3.3-2.42-3.3a3.53,3.53,0,0,0-3.6,3.11l-1.37,7.58h-3.46Z"/><path class="cls-1" d="M203,83.33h3.45L204,96.7h-3.45Zm.27-3.57a2.5,2.5,0,0,1,2.47-2,1.64,1.64,0,0,1,1.74,2,2.49,2.49,0,0,1-2.45,2A1.63,1.63,0,0,1,203.24,79.76Z"/><path class="cls-1" d="M210.59,78.84H214L210.83,96.7h-3.45Z"/><path class="cls-1" d="M222,83.11a4.6,4.6,0,0,1,4.07,2.08l1.15-6.35h3.45L227.44,96.7H224l.37-2a6.31,6.31,0,0,1-4.85,2.19c-3.48,0-5.73-2.77-5-7S218.5,83.11,222,83.11Zm.34,3A4.48,4.48,0,0,0,218,90c-.44,2.54,1,4,2.86,4A4.49,4.49,0,0,0,225.19,90C225.65,87.48,224.18,86.08,222.32,86.08Z"/><path class="cls-1" d="M230.81,96.7l2.4-13.37h3.45l-.42,2.36a5.72,5.72,0,0,1,4.61-2.56l-.64,3.55h-.91a3.41,3.41,0,0,0-3.77,2.87l-1.27,7.15Z"/><path class="cls-1" d="M246.63,96.91c-3.94,0-6.37-2.7-5.58-6.9a8,8,0,0,1,8-6.9c3.92,0,6.22,2.63,5.51,6.59a8.52,8.52,0,0,1-.32,1.25h-9.92a2.57,2.57,0,0,0,2.7,3.16,3.35,3.35,0,0,0,3-1.61h3.7A7.78,7.78,0,0,1,246.63,96.91Zm-1.91-8h6.47a2.47,2.47,0,0,0-2.7-3A3.94,3.94,0,0,0,244.72,88.9Z"/><path class="cls-1" d="M266.67,89.31c.37-2.15-.61-3.3-2.42-3.3a3.58,3.58,0,0,0-3.63,3.13l-1.34,7.56h-3.46l2.4-13.37h3.45L261.38,85a6.17,6.17,0,0,1,4.38-1.84c3.19,0,5.07,2,4.41,5.72l-1.42,7.85h-3.4Z"/><path class="cls-1" d="M119.2,0h.41A2.27,2.27,0,0,0,119.2,0Z"/><path class="cls-1" d="M281.73,1.51H258.3a1.7,1.7,0,0,0-1.65,1.38l-.81,5.45C251.72,2.2,245.19,0,233.9,0H179.55a3.1,3.1,0,0,0-1.3.28,3.58,3.58,0,0,0-.92,1.38L161.42,36.84s-.39.8-.68.8-.34-.84-.34-.84L153.87,1.67A2.56,2.56,0,0,0,153.49.5C153,0,151.75,0,151.75,0h-34.2a1.23,1.23,0,0,0-1.24,1.12c-.61,8.41-5.43,13.74-12.31,13.74-6.34,0-10.11-4.37-10.11-10.77A24.21,24.21,0,0,1,94,1.37,1.23,1.23,0,0,0,92.8,0H58.66a3.13,3.13,0,0,0-1.31.28,3.51,3.51,0,0,0-.91,1.38L40.14,37.29s-.29.43-.53.39-.4-.53-.4-.53L33.61,1.67A2.49,2.49,0,0,0,33.22.5C32.8,0,31.52,0,31.52,0H2.07S.38-.11.06.65a2.49,2.49,0,0,0,0,1L17.35,66.43a3,3,0,0,0,.77,1.48,3.24,3.24,0,0,0,1.66.33H49.55A4.11,4.11,0,0,0,51,67.91a4.34,4.34,0,0,0,1.27-1.48L85.54,10.7a.67.67,0,0,1,.7-.36.43.43,0,0,1,.36.46L78,65.72s-.31,1.52.47,2.12a3.59,3.59,0,0,0,1.8.4h29.87s2.09,0,2.72-.6a4.52,4.52,0,0,0,.82-2.2l8.66-54.64s0-.46.4-.46c.7,0,.73.49.73.49l14.82,55.6a3.08,3.08,0,0,0,.78,1.48,3.11,3.11,0,0,0,1.62.33h29.81a4.15,4.15,0,0,0,1.49-.33,4.27,4.27,0,0,0,1.26-1.48l34-55.77a.74.74,0,0,1,.77-.28c.32,0,.26.28.26.28a93.15,93.15,0,0,0-5.66,16.23,43.24,43.24,0,0,0-1.4,11c0,20.35,14.49,31.6,28.11,31.6a24.64,24.64,0,0,0,18.07-7.59l-.68,4.24a1.69,1.69,0,0,0,1.66,2h23.46a1.68,1.68,0,0,0,1.67-1.38l10-63.26A1.73,1.73,0,0,0,281.73,1.51ZM239.88,47.28c-6.35,0-10.13-4.37-10.13-10.76,0-9.49,5-15.63,12.38-15.63,6.39,0,10.13,4.38,10.13,10.75C252.26,41.14,247.25,47.28,239.88,47.28Z"/></g></g></svg>